<mxfile host="Electron" modified="2023-08-16T15:05:07.212Z" agent="Mozilla/5.0 (Windows NT 10.0; Win64; x64) AppleWebKit/537.36 (KHTML, like Gecko) draw.io/21.6.8 Chrome/114.0.5735.289 Electron/25.5.0 Safari/537.36" etag="xNDKpTRQ7ouHmR8lmqbz" version="21.6.8" type="device">
  <diagram name="PÃ¡gina-1" id="gEe9jg7aJHdmPVq-lxhA">
    <mxGraphModel dx="1877" dy="629" grid="1" gridSize="10" guides="1" tooltips="1" connect="1" arrows="1" fold="1" page="1" pageScale="1" pageWidth="827" pageHeight="1169" math="0" shadow="0">
      <root>
        <mxCell id="0" />
        <mxCell id="1" parent="0" />
        <mxCell id="j_fQEoO8fo2Osoyum8JG-1" value="&lt;font style=&quot;font-size: 18px;&quot;&gt;&lt;u&gt;:Sistema&lt;/u&gt;&lt;/font&gt;" style="rounded=0;whiteSpace=wrap;html=1;" parent="1" vertex="1">
          <mxGeometry x="210" y="240" width="120" height="60" as="geometry" />
        </mxCell>
        <mxCell id="j_fQEoO8fo2Osoyum8JG-2" value="" style="endArrow=none;html=1;rounded=0;entryX=0;entryY=0.5;entryDx=0;entryDy=0;" parent="1" edge="1">
          <mxGeometry width="50" height="50" relative="1" as="geometry">
            <mxPoint x="-100" y="270" as="sourcePoint" />
            <mxPoint x="210" y="271" as="targetPoint" />
          </mxGeometry>
        </mxCell>
        <mxCell id="j_fQEoO8fo2Osoyum8JG-3" value="&lt;font style=&quot;font-size: 14px;&quot;&gt;altaUsuario(provotur : Bool, data : DtUsuario)&lt;/font&gt;" style="text;html=1;strokeColor=none;fillColor=none;align=center;verticalAlign=middle;whiteSpace=wrap;rounded=0;" parent="1" vertex="1">
          <mxGeometry x="-100" y="210" width="300" height="30" as="geometry" />
        </mxCell>
        <mxCell id="j_fQEoO8fo2Osoyum8JG-4" value="" style="endArrow=classic;html=1;rounded=0;" parent="1" edge="1">
          <mxGeometry width="50" height="50" relative="1" as="geometry">
            <mxPoint x="10" y="251" as="sourcePoint" />
            <mxPoint x="100" y="251" as="targetPoint" />
          </mxGeometry>
        </mxCell>
        <mxCell id="j_fQEoO8fo2Osoyum8JG-5" value="" style="endArrow=none;html=1;rounded=0;entryX=1;entryY=0.5;entryDx=0;entryDy=0;exitX=0;exitY=0.5;exitDx=0;exitDy=0;" parent="1" source="j_fQEoO8fo2Osoyum8JG-6" target="j_fQEoO8fo2Osoyum8JG-1" edge="1">
          <mxGeometry width="50" height="50" relative="1" as="geometry">
            <mxPoint x="590" y="270" as="sourcePoint" />
            <mxPoint x="280" y="300" as="targetPoint" />
          </mxGeometry>
        </mxCell>
        <mxCell id="j_fQEoO8fo2Osoyum8JG-6" value="&lt;font style=&quot;font-size: 18px;&quot;&gt;&lt;u&gt;u:Proveedor&lt;/u&gt;&lt;/font&gt;" style="rounded=0;whiteSpace=wrap;html=1;" parent="1" vertex="1">
          <mxGeometry x="770" y="240" width="120" height="60" as="geometry" />
        </mxCell>
        <mxCell id="j_fQEoO8fo2Osoyum8JG-7" value="&lt;font style=&quot;font-size: 14px;&quot;&gt;1 a [si provotur == true] : u := create(data)&lt;/font&gt;" style="text;html=1;strokeColor=none;fillColor=none;align=center;verticalAlign=middle;whiteSpace=wrap;rounded=0;" parent="1" vertex="1">
          <mxGeometry x="360" y="200" width="370" height="30" as="geometry" />
        </mxCell>
        <mxCell id="j_fQEoO8fo2Osoyum8JG-8" value="" style="endArrow=classic;html=1;rounded=0;" parent="1" edge="1">
          <mxGeometry width="50" height="50" relative="1" as="geometry">
            <mxPoint x="500" y="240" as="sourcePoint" />
            <mxPoint x="590" y="240" as="targetPoint" />
          </mxGeometry>
        </mxCell>
        <mxCell id="j_fQEoO8fo2Osoyum8JG-9" value="" style="endArrow=none;html=1;rounded=0;exitX=0.75;exitY=1;exitDx=0;exitDy=0;" parent="1" source="j_fQEoO8fo2Osoyum8JG-1" edge="1">
          <mxGeometry width="50" height="50" relative="1" as="geometry">
            <mxPoint x="300" y="340" as="sourcePoint" />
            <mxPoint x="770" y="380" as="targetPoint" />
            <Array as="points">
              <mxPoint x="300" y="380" />
            </Array>
          </mxGeometry>
        </mxCell>
        <mxCell id="j_fQEoO8fo2Osoyum8JG-10" value="&lt;font style=&quot;font-size: 18px;&quot;&gt;&lt;u&gt;u:Turista&lt;/u&gt;&lt;/font&gt;" style="rounded=0;whiteSpace=wrap;html=1;" parent="1" vertex="1">
          <mxGeometry x="770" y="350" width="120" height="60" as="geometry" />
        </mxCell>
        <mxCell id="j_fQEoO8fo2Osoyum8JG-11" value="&lt;font style=&quot;font-size: 14px;&quot;&gt;1 b [si provotur == false] : u := create(data)&lt;/font&gt;" style="text;html=1;strokeColor=none;fillColor=none;align=center;verticalAlign=middle;whiteSpace=wrap;rounded=0;" parent="1" vertex="1">
          <mxGeometry x="350" y="320" width="370" height="30" as="geometry" />
        </mxCell>
        <mxCell id="j_fQEoO8fo2Osoyum8JG-12" value="" style="endArrow=classic;html=1;rounded=0;" parent="1" edge="1">
          <mxGeometry width="50" height="50" relative="1" as="geometry">
            <mxPoint x="480" y="360" as="sourcePoint" />
            <mxPoint x="570" y="360" as="targetPoint" />
          </mxGeometry>
        </mxCell>
        <mxCell id="j_fQEoO8fo2Osoyum8JG-13" value="" style="endArrow=none;html=1;rounded=0;entryX=0.408;entryY=1.04;entryDx=0;entryDy=0;entryPerimeter=0;" parent="1" target="j_fQEoO8fo2Osoyum8JG-1" edge="1">
          <mxGeometry width="50" height="50" relative="1" as="geometry">
            <mxPoint x="770" y="470" as="sourcePoint" />
            <mxPoint x="480" y="320" as="targetPoint" />
            <Array as="points">
              <mxPoint x="259" y="470" />
            </Array>
          </mxGeometry>
        </mxCell>
        <mxCell id="j_fQEoO8fo2Osoyum8JG-14" value="" style="rounded=0;whiteSpace=wrap;html=1;" parent="1" vertex="1">
          <mxGeometry x="775" y="430" width="120" height="60" as="geometry" />
        </mxCell>
        <mxCell id="j_fQEoO8fo2Osoyum8JG-15" value="&lt;font style=&quot;font-size: 18px;&quot;&gt;&lt;u&gt;:Usuario&lt;/u&gt;&lt;/font&gt;" style="rounded=0;whiteSpace=wrap;html=1;" parent="1" vertex="1">
          <mxGeometry x="765" y="440" width="120" height="60" as="geometry" />
        </mxCell>
        <mxCell id="j_fQEoO8fo2Osoyum8JG-16" value="&lt;font style=&quot;font-size: 14px;&quot;&gt;2 : add(u)&lt;/font&gt;" style="text;html=1;strokeColor=none;fillColor=none;align=center;verticalAlign=middle;whiteSpace=wrap;rounded=0;" parent="1" vertex="1">
          <mxGeometry x="320" y="420" width="370" height="30" as="geometry" />
        </mxCell>
        <mxCell id="j_fQEoO8fo2Osoyum8JG-17" value="" style="endArrow=classic;html=1;rounded=0;" parent="1" edge="1">
          <mxGeometry width="50" height="50" relative="1" as="geometry">
            <mxPoint x="460" y="450" as="sourcePoint" />
            <mxPoint x="550" y="450" as="targetPoint" />
          </mxGeometry>
        </mxCell>
      </root>
    </mxGraphModel>
  </diagram>
</mxfile>
